<svg xmlns="http://www.w3.org/2000/svg" width="150" height="150" class="user-profile-image" viewBox="0 0 150 150">
  <path id="Icon_awesome-user-circle" data-name="Icon awesome-user-circle" d="M75,.563a75,75,0,1,0,75,75A74.987,74.987,0,0,0,75,.563Zm0,29.032A26.613,26.613,0,1,1,48.387,56.208,26.613,26.613,0,0,1,75,29.595Zm0,104.032A57.952,57.952,0,0,1,30.7,113,33.718,33.718,0,0,1,60.484,94.917a7.4,7.4,0,0,1,2.147.333A40.041,40.041,0,0,0,75,97.337,39.889,39.889,0,0,0,87.369,95.25a7.4,7.4,0,0,1,2.147-.333A33.718,33.718,0,0,1,119.3,113,57.952,57.952,0,0,1,75,133.627Z" transform="translate(0 -0.563)" fill="#fff"/>
</svg>